<svg data-v-16bc8e0b="" version="1.0" xmlns="http://www.w3.org/2000/svg" width="100%" height="100%" viewBox="0 0 340.000000 250.000000" preserveAspectRatio="xMidYMid meet" color-interpolation-filters="sRGB" class="el-tooltip" style="margin: auto;"><rect data-v-16bc8e0b="" x="0" y="0" width="100%" height="100%" fill="#fff" fill-opacity="1"></rect> <rect data-v-16bc8e0b="" x="0" y="0" width="100%" height="100%" fill="url(#watermark)" fill-opacity="1" class="watermarklayer"></rect> <g data-v-16bc8e0b="" fill="#3faf90" transform="translate(102.99786376953125,102)"><g transform="translate(0,0)"><rect fill="#3faf90" fill-opacity="0" x="0" y="0" width="42.044736302073" height="46"></rect> <svg x="0" y="0" width="42.044736302073" height="46"><svg xmlns="http://www.w3.org/2000/svg" viewBox="0 0 44.54 48.73"><defs><linearGradient id="a2d532f53-af65-4a5d-9ab7-4f7f9a2381fc" x1="47.07" y1="-51.42" x2="25.32" y2="-23.41" gradientTransform="rotate(-44.58 106.766 22.524)" gradientUnits="userSpaceOnUse"><stop offset="0" stop-color="#59c4f1"></stop><stop offset=".16" stop-color="#56bfed"></stop><stop offset=".34" stop-color="#4cb1e0"></stop><stop offset=".53" stop-color="#3d9acb"></stop><stop offset=".73" stop-color="#277aae"></stop><stop offset=".93" stop-color="#0b5189"></stop><stop offset="1" stop-color="#00417b"></stop></linearGradient><linearGradient id="bf485eae1-571c-451d-84b2-8ef20f16ea8e" x1="50.4" y1="-48.83" x2="28.65" y2="-20.82" gradientTransform="rotate(-44.58 106.766 22.524)" gradientUnits="userSpaceOnUse"><stop offset="0" stop-color="#59c4f1"></stop><stop offset=".16" stop-color="#56bfed"></stop><stop offset=".34" stop-color="#4cb1e0"></stop><stop offset=".53" stop-color="#3d9acb"></stop><stop offset=".73" stop-color="#277aae"></stop><stop offset=".93" stop-color="#0b5189"></stop><stop offset="1" stop-color="#00417b"></stop></linearGradient><linearGradient id="cae21d489-cb1f-4a81-b058-e58714fd6b7b" x1="51.88" y1="-47.69" x2="30.12" y2="-19.67" gradientTransform="rotate(-44.58 106.766 22.524)" gradientUnits="userSpaceOnUse"><stop offset="0" stop-color="#59c4f1"></stop><stop offset=".16" stop-color="#56bfed"></stop><stop offset=".34" stop-color="#4cb1e0"></stop><stop offset=".53" stop-color="#3d9acb"></stop><stop offset=".73" stop-color="#277aae"></stop><stop offset=".93" stop-color="#0b5189"></stop><stop offset="1" stop-color="#00417b"></stop></linearGradient><linearGradient id="d6aea3173-33a3-4922-8b28-61ec2e746ee9" x1="59.09" y1="-42.08" x2="37.34" y2="-14.07" gradientTransform="rotate(-44.58 106.766 22.524)" gradientUnits="userSpaceOnUse"><stop offset="0" stop-color="#59c4f1"></stop><stop offset=".16" stop-color="#56bfed"></stop><stop offset=".34" stop-color="#4cb1e0"></stop><stop offset=".53" stop-color="#3d9acb"></stop><stop offset=".73" stop-color="#277aae"></stop><stop offset=".93" stop-color="#0b5189"></stop><stop offset="1" stop-color="#00417b"></stop></linearGradient></defs><g style="isolation:isolate"><g style="mix-blend-mode:multiply"><path d="M23.14 1.06A28.69 28.69 0 0 0 0 23.86z" fill="#3faf90" style="mix-blend-mode:multiply"></path><path d="M1 32.23a22.65 22.65 0 0 0 1 4L32 6.68a8.13 8.13 0 0 0 .14-5.19z" fill="#ec6306" style="mix-blend-mode:multiply"></path><path d="M29.82 25.89c0-.34.1-.68.17-1a81.59 81.59 0 0 1 2.48-8.92L5.52 42.5c.42.52.86 1 1.34 1.52a20.79 20.79 0 0 0 2.43 2.1z" fill="#3faf90" style="mix-blend-mode:multiply"></path><path d="M41 18.1a19.43 19.43 0 0 0 3.5-9L31.41 21.82l.12.14a3.67 3.67 0 0 0 5.27.2z" fill="#62c6f2"></path><path d="M37.71 9a19.41 19.41 0 0 0 3.5-9l-9.13 8.73c.1.13.27.31.49.53a3.43 3.43 0 0 0 4.7.14zM14.53 47.73a22.8 22.8 0 0 0 4.89 1l12.46-12.28a10.32 10.32 0 0 1-2.27-3.57z" fill="#fac000" style="mix-blend-mode:multiply"></path><path d="M32 32.9l1 .3a6.57 6.57 0 0 0 6.24-1.59l1.78-1.7c.52-2.46 1.26-5.22.73-6.57z" fill="#ec6306"></path><path d="M35 39.48l-8.3 8.18A28.59 28.59 0 0 0 37.41 41a29.64 29.64 0 0 0 2-2.24 15.71 15.71 0 0 1-4.41.72z" fill="#8f2324"></path><g style="mix-blend-mode:multiply"><path d="M3.87 23.23L21.5 5.86A19.6 19.6 0 0 0 3.87 23.23z" fill="url(#a2d532f53-af65-4a5d-9ab7-4f7f9a2381fc)"></path><path d="M3.87 23.23L21.5 5.86A19.6 19.6 0 0 0 3.87 23.23z" fill="#00449b"></path><path d="M27.4 6.2a19.57 19.57 0 0 0-2.47-.36L3.8 26.67a19.62 19.62 0 0 0 2 7.34l24-23.63a5.25 5.25 0 0 0-2.4-4.18z" fill="#fac000" style="mix-blend-mode:multiply"></path><path d="M26.93 24.93c.49-3.68 1.74-7.19 2.44-10.82L7 36.17a19.86 19.86 0 0 0 2.4 3A19.66 19.66 0 0 0 11.5 41l15.34-15.12c.02-.32.05-.64.09-.95z" fill="url(#bf485eae1-571c-451d-84b2-8ef20f16ea8e)"></path><path d="M26.93 24.93c.49-3.68 1.74-7.19 2.44-10.82L7 36.17a19.86 19.86 0 0 0 2.4 3A19.66 19.66 0 0 0 11.5 41l15.34-15.12c.02-.32.05-.64.09-.95z" fill="#ec6306"></path><path d="M26.92 29.16L13.54 42.34a19.58 19.58 0 0 0 6.95 2.42l9.36-9.22a11 11 0 0 1-2.93-6.38z" fill="url(#cae21d489-cb1f-4a81-b058-e58714fd6b7b)"></path><path d="M26.92 29.16L13.54 42.34a19.58 19.58 0 0 0 6.95 2.42l9.36-9.22a11 11 0 0 1-2.93-6.38z" fill="#613d94"></path><path d="M34.18 37.91a9.32 9.32 0 0 1-2.4-.91l-8.08 8a19.51 19.51 0 0 0 14.93-7.32 9.85 9.85 0 0 1-4.45.23z" fill="url(#d6aea3173-33a3-4922-8b28-61ec2e746ee9)"></path><path d="M34.18 37.91a9.32 9.32 0 0 1-2.4-.91l-8.08 8a19.51 19.51 0 0 0 14.93-7.32 9.85 9.85 0 0 1-4.45.23z" fill="#dd1b25"></path></g></g></g></svg></svg> <!----></g> <g transform="translate(49.044734954833984,9.014999389648438)"><g><g><path transform="translate(-1.23046875,27.5419921875)" d="M1.23 0L1.23-2.58L4.57-3.16L4.57-19.01L1.23-19.58L1.23-22.19L8.18-22.19L8.47-18.89L8.47-18.89Q9.58-20.65 11.25-21.63L11.25-21.63L11.25-21.63Q12.92-22.60 15.05-22.60L15.05-22.60L15.05-22.60Q18.64-22.60 20.61-20.50L20.61-20.50L20.61-20.50Q22.58-18.40 22.58-14.01L22.58-14.01L22.58-3.16L25.92-2.58L25.92 0L15.20 0L15.20-2.58L18.54-3.16L18.54-13.92L18.54-13.92Q18.54-16.86 17.38-18.09L17.38-18.09L17.38-18.09Q16.22-19.32 13.84-19.32L13.84-19.32L13.84-19.32Q12.10-19.32 10.76-18.48L10.76-18.48L10.76-18.48Q9.41-17.64 8.61-16.18L8.61-16.18L8.61-3.16L11.96-2.58L11.96 0L1.23 0ZM28.67-10.85L28.67-11.30L28.67-11.30Q28.67-16.22 31.34-19.41L31.34-19.41L31.34-19.41Q34.00-22.60 38.58-22.60L38.58-22.60L38.58-22.60Q43.17-22.60 45.85-19.42L45.85-19.42L45.85-19.42Q48.52-16.24 48.52-11.30L48.52-11.30L48.52-10.85L48.52-10.85Q48.52-5.89 45.86-2.73L45.86-2.73L45.86-2.73Q43.19 0.43 38.62 0.43L38.62 0.43L38.62 0.43Q34.00 0.43 31.34-2.74L31.34-2.74L31.34-2.74Q28.67-5.91 28.67-10.85L28.67-10.85M32.71-11.30L32.71-10.85L32.71-10.85Q32.71-7.32 34.20-5.02L34.20-5.02L34.20-5.02Q35.68-2.73 38.62-2.73L38.62-2.73L38.62-2.73Q41.49-2.73 42.98-5.02L42.98-5.02L42.98-5.02Q44.48-7.32 44.48-10.85L44.48-10.85L44.48-11.30L44.48-11.30Q44.48-14.79 42.98-17.10L42.98-17.10L42.98-17.10Q41.49-19.42 38.58-19.42L38.58-19.42L38.58-19.42Q35.66-19.42 34.19-17.10L34.19-17.10L34.19-17.10Q32.71-14.79 32.71-11.30L32.71-11.30ZM55.23-27.54L59.27-27.54L59.27-22.19L63.47-22.19L63.47-19.20L59.27-19.20L59.27-5.72L59.27-5.72Q59.27-4.16 59.91-3.53L59.91-3.53L59.91-3.53Q60.56-2.89 61.63-2.89L61.63-2.89L61.63-2.89Q62.16-2.89 62.83-2.98L62.83-2.98L62.83-2.98Q63.49-3.08 63.94-3.18L63.94-3.18L64.50-0.41L64.50-0.41Q63.92-0.04 62.82 0.19L62.82 0.19L62.82 0.19Q61.71 0.43 60.60 0.43L60.60 0.43L60.60 0.43Q58.14 0.43 56.68-1.06L56.68-1.06L56.68-1.06Q55.23-2.54 55.23-5.72L55.23-5.72L55.23-19.20L51.72-19.20L51.72-22.19L55.23-22.19L55.23-27.54ZM77.72 0.43L77.72 0.43L77.72 0.43Q73.09 0.43 70.35-2.66L70.35-2.66L70.35-2.66Q67.61-5.74 67.61-10.66L67.61-10.66L67.61-11.57L67.61-11.57Q67.61-16.30 70.43-19.45L70.43-19.45L70.43-19.45Q73.25-22.60 77.11-22.60L77.11-22.60L77.11-22.60Q81.58-22.60 83.89-19.89L83.89-19.89L83.89-19.89Q86.19-17.19 86.19-12.67L86.19-12.67L86.19-10.15L71.80-10.15L71.74-10.05L71.74-10.05Q71.80-6.85 73.36-4.79L73.36-4.79L73.36-4.79Q74.92-2.73 77.72-2.73L77.72-2.73L77.72-2.73Q79.78-2.73 81.32-3.31L81.32-3.31L81.32-3.31Q82.87-3.90 84-4.92L84-4.92L85.58-2.30L85.58-2.30Q84.39-1.15 82.43-0.36L82.43-0.36L82.43-0.36Q80.47 0.43 77.72 0.43M77.11-19.42L77.11-19.42L77.11-19.42Q75.08-19.42 73.64-17.71L73.64-17.71L73.64-17.71Q72.21-16.00 71.88-13.41L71.88-13.41L71.92-13.31L82.15-13.31L82.15-13.84L82.15-13.84Q82.15-16.22 80.88-17.82L80.88-17.82L80.88-17.82Q79.61-19.42 77.11-19.42Z"></path></g> <!----></g> <!----></g></g></svg>
