<svg data-v-16bc8e0b="" version="1.0" xmlns="http://www.w3.org/2000/svg" width="100%" height="100%" viewBox="0 0 340.000000 250.000000" preserveAspectRatio="xMidYMid meet" color-interpolation-filters="sRGB" class="el-tooltip" style="margin: auto;"><rect data-v-16bc8e0b="" x="0" y="0" width="100%" height="100%" fill="#f24c7c" fill-opacity="1"></rect> <rect data-v-16bc8e0b="" x="0" y="0" width="100%" height="100%" fill="url(#watermark)" fill-opacity="1" class="watermarklayer"></rect> <g data-v-16bc8e0b="" fill="#fff" transform="translate(125.20899963378906,80.20899963378906)"><g fill="#fff"><polyline stroke="#fff" stroke-width="2" fill-opacity="0" points="6.000856188154167,28.455999374389652 6.000856188154167,22.395500183105472 44.79100036621094,0 83.58114454426772,22.395500183105472 83.58114454426772,28.455999374389652"></polyline> <polyline stroke="#fff" stroke-width="2" fill-opacity="0" points="6.000856188154167,61.12600135803223 6.000856188154167,67.1865005493164 44.79100036621094,89.58200073242188 83.58114454426772,67.1865005493164 83.58114454426772,61.12600135803223"></polyline> <g transform="translate(40.04669427871704,12.501099586486816)"><!----> <svg filter="url(#colors7152608587)" x="0" y="0" width="9.488612553084085" height="10.95489971167786"><svg xmlns="http://www.w3.org/2000/svg" viewBox="0 0 97.7 112.8"><path d="M2 29.4L48.9 2.3l46.9 27.1v54.1l-46.9 27.1L2 83.5V29.4zm23.4 13.5l23.4 13.5 23.4-13.5V15.8L48.9 2.3 25.4 15.8v27.1zm0 54.1l23.4 13.5L72.3 97V69.9L48.9 56.4 25.4 69.9V97z" fill="none" stroke="#202121" stroke-width="4" stroke-miterlimit="10"></path></svg></svg> <defs><filter id="colors7152608587"><feColorMatrix type="matrix" values="0 0 0 0 0.99609375  0 0 0 0 0.99609375  0 0 0 0 0.99609375  0 0 0 1 0"></feColorMatrix></filter></defs></g> <g transform="translate(0,28.455999374389652)"><rect x="0" y="0" width="89.58000183105469" height="32.67000198364258" fill-opacity="0"></rect> <!----> <g transform="translate(0,3)"><g transform="translate(0,0)"><g><path transform="translate(-1.638,26.04)" d="M27.68-4.45L24.49-4.45L24.49-10.96C24.49-16.72 21-20.50 15.75-20.50C13.36-20.50 11.30-19.66 9.62-18.23L9.62-19.87L1.64-19.87L1.64-15.41L4.79-15.41L4.79-4.45L1.64-4.45L1.64 0L12.85 0L12.85-4.45L9.62-4.45L9.62-13.19C11.13-15.08 13.02-16.09 14.74-16.09C17.81-16.09 19.61-14.15 19.61-10.67L19.61-4.45L16.46-4.45L16.46 0L27.68 0ZM40.03-20.33C33.98-20.33 29.27-15.92 29.27-9.91C29.27-3.86 33.98 0.63 40.03 0.63C46.03 0.63 50.78-3.86 50.78-9.91C50.78-15.92 46.03-20.33 40.03-20.33ZM40.07-3.78C36.62-3.78 34.15-6.51 34.15-9.91C34.15-13.27 36.62-15.92 40.07-15.92C43.43-15.92 45.95-13.27 45.95-9.91C45.95-6.51 43.43-3.78 40.07-3.78ZM69.05-4.37C68.04-4.07 66.82-3.86 65.73-3.86C63.34-3.86 61.91-5.00 61.91-7.64L61.91-15.41L68.92-15.41L68.92-19.87L61.91-19.87L61.91-26.04L57.08-26.04L57.08-19.87L52.21-19.87L52.21-15.41L57.08-15.41L57.08-7.64C57.08-2.52 60.06 0.63 64.76 0.63C66.49 0.63 67.54 0.46 69.72-0.21ZM91.22-10.25C91.22-16.21 87.11-20.33 81.31-20.33C75.26-20.33 70.94-15.83 70.94-9.91C70.94-4.03 75.18 0.63 81.52 0.63C86.06 0.63 89.75-1.85 90.89-5.50L85.72-5.50C84.97-4.28 83.58-3.65 81.69-3.65C78.29-3.65 76.44-5.54 75.81-8.02L91.06-8.02L91.10-8.02C91.22-8.78 91.22-9.53 91.22-10.25ZM81.44-16.51C84.42-16.51 86.18-14.53 86.60-11.84L75.81-11.84C76.44-14.41 78.33-16.51 81.44-16.51Z"></path></g> <!----></g> <!----></g></g></g></g></svg>
